#!OML:ASF E:/inclinewalkrobotboard/Project1/Captureday1/Session1/subject1.ASF
:FULLY-SPECIFIED
:DEGREES
176
root 0 0 0 0.46011321970802976 -3.165092999051666 1.2563861370618625
lowerback 11.504427300376323 0.6324273227649084 -0.5320345548062414
upperback -2.777937541024055 0.7987989431016028 0.017314210766122384
thorax -9.449326677534392 0.35658551732061017 0.19859950771785317
lowerneck -9.801508181709448 0.26125133286740176 2.3746762699597235
upperneck 18.55267252478788 1.1303243239928316 -5.503114482053712
head 7.447560375003707 0.27250661273227994 -2.0896010708925146
rclavicle 2.124807789039329E-16 -7.383302515111926E-16
rhumerus 2.5788004222228444 3.4361704147078225 -59.566938501795136
rradius 56.19355316454356
rwrist 17.53871402344886
rhand -28.399461124822885 -27.540499379906247
rfingers 7.125019999999986
rthumb -1.7671024689283925 -57.779305738448414
lclavicle -8.353639464807896E-16 -1.757005907046812E-16
lhumerus 3.063956676360963 -9.596908029004602 59.04309710262086
lradius 55.76623813274952
lwrist -11.267723038579051
lhand -38.85798074903233 -35.97481356109541
lfingers 7.125019999999983
lthumb -11.799237395921688 -6.281852030590322
rfemur -25.26606290818365 1.7958345596035776 20.034630691330527
rtibia 47.725246257701656
rfoot -7.319945021451563 -9.84940515483646
rtoes -1.4212136655973686
lfemur -14.839977375295419 -0.31802252258721797 -17.19673655507382
ltibia 42.490522567135706
lfoot -6.0470658780916065 -4.7553680721705796
ltoes -6.233576129076325
177
root 0 0 0 0.4604801603964246 -3.1629032576484666 1.260570284825118
lowerback 11.504777986590085 0.6309739340778647 -0.5359961917394399
upperback -2.778530432525973 0.7963363333043093 0.016949132508638387
thorax -9.450249355380006 0.3554811832056695 0.2009415024829695
lowerneck -9.79987929581538 0.2621129471251362 2.375352291145358
upperneck 18.552920093493196 1.1317157427623998 -5.5045366938355835
head 7.447410627124005 0.2731294023038864 -2.0900076146772495
rclavicle 2.125370874818228E-16 -7.383194096323763E-16
rhumerus 2.5797331200084805 3.43673913644559 -59.566340745093
rradius 56.194386771361266
rwrist 17.539185173935998
rhand -28.39975801191909 -27.54195664038794
rfingers 7.125019999999986
rthumb -1.767399198222372 -57.78081052068512
lclavicle -8.354072870560107E-16 -1.7547564722683008E-16
lhumerus 3.0678515211096453 -9.597983823883007 59.040392903642825
lradius 55.7692506158519
lwrist -11.269568946883878
lhand -38.859280748113406 -35.981305019745
lfingers 7.125019999999983
lthumb -11.800474605724808 -6.288606036201124
rfemur -25.34000486323844 1.7765827569622343 19.998049277295713
rtibia 47.804068559190625
rfoot -7.29159053744868 -9.860622720587667
rtoes -1.4292843013952976
lfemur -14.889228241677637 -0.29526713832244855 -17.164346244197063
ltibia 42.65255356503198
lfoot -5.989859803241601 -4.803068313368047
ltoes -6.255748248302352
178
root 0 0 0 0.4607585335368096 -3.165923715306553 1.2552450143950742
lowerback 11.504386630455324 0.6329408255455438 -0.5307445979116033
upperback -2.7783824379124256 0.7996955195453893 0.017243955243242848
thorax -9.449774281714133 0.35699281984930625 0.19755241635725607
lowerneck -9.800931036487789 0.26167265246971194 2.375264511936599
upperneck 18.55195893863347 1.130725368060244 -5.503628620883076
head 7.447156930217597 0.27269788326516653 -2.08979967405078
rclavicle 2.1271967786118647E-16 -7.369862034764275E-16
rhumerus 2.580687354181922 3.4376426363840302 -59.56604472111037
rradius 56.19504688685534
rwrist 17.539157821209578
rhand -28.40003434929131 -27.542979899045523
rfingers 7.125019999999986
rthumb -1.7674858726691074 -57.78143778822613
lclavicle -8.33817320152071E-16 -1.7370932560227498E-16
lhumerus 3.074472564486541 -9.599998077845795 59.03606562326718
lradius 55.77414422461281
lwrist -11.272663384137548
lhand -38.861426620703625 -35.9916407832073
lfingers 7.125019999999983
lthumb -11.802421831929955 -6.299994444218839
rfemur -25.27265021941181 1.7961089606430511 20.0321706981699
rtibia 47.710993190113754
rfoot -7.330783873692193 -9.855147553644539
rtoes -1.4320469238696947
lfemur -14.90834375026332 -0.31461636792481384 -17.168421742624076
ltibia 42.517597821579294
lfoot -6.037034241884612 -4.745991141300736
ltoes -6.22805332603736
179
root 0 0 0 0.46065375114905116 -3.1669827659814285 1.254403364846712
lowerback 11.504638791349471 0.633531715898792 -0.5294215753568096
upperback -2.7785070887104917 0.8006198131207036 0.01711473040387812
thorax -9.450052242895108 0.3574010695595103 0.19665298386076568
lowerneck -9.800541518203032 0.26153953729247403 2.375503689682264
upperneck 18.552794532479172 1.1307247391312574 -5.50407483476297
head 7.447390498943117 0.27265638513159773 -2.0900010149789487
rclavicle 2.1247489207134244E-16 -7.383343511585331E-16
rhumerus 2.5817494908323155 3.438348296456491 -59.56544694160778
rradius 56.19619497405673
rwrist 17.539770008585656
rhand -28.40040595052252 -27.54481111345081
rfingers 7.125019999999986
rthumb -1.7679291077876345 -57.783683089721684
lclavicle -8.354016101854894E-16 -1.7514254592058804E-16
lhumerus 3.073430199214414 -9.59967749823928 59.03656217877656
lradius 55.773739282366606
lwrist -11.272038425769855
lhand -38.86116510479307 -35.99024800837783
lfingers 7.125019999999983
lthumb -11.802262100206004 -6.297895391284264
rfemur -25.298976055142383 1.788804679557438 20.01884077100254
rtibia 47.7433205005935
rfoot -7.318837862072524 -9.858322507701768
rtoes -1.4335364111176694
lfemur -14.918134839242834 -0.30307191143576295 -17.158400188891093
ltibia 42.59627190531479
lfoot -6.011875961661828 -4.773031982108281
ltoes -6.241771628011144
180
root 0 0 0 0.46079629816422196 -3.166034740014855 1.2562381569433858
lowerback 11.50478175597818 0.6329118130212491 -0.5311635441816617
upperback -2.778746993799855 0.7995628255870624 0.016947708682462537
thorax -9.450431817189362 0.35692494311891615 0.19767077504493424
lowerneck -9.799848822853315 0.2618946226868606 2.375773642170351
upperneck 18.5528983924803 1.1313147085041093 -5.504669972442865
head 7.447327497990711 0.27291958124953064 -2.0901674923323577
rclavicle 2.1266758493760397E-16 -7.382057099246068E-16
rhumerus 2.5825116208057715 3.4388618035259935 -59.56494713780677
rradius 56.19692507657805
rwrist 17.540095322081193
rhand -28.40065074456526 -27.54599648651813
rfingers 7.125019999999986
rthumb -1.7681633290842473 -57.78490356433345
lclavicle -8.353892575516359E-16 -1.7502183956233528E-16
lhumerus 3.074445817541914 -9.599956036475932 59.035871448743535
lradius 55.774472015528346
lwrist -11.272518626463444
lhand -38.86149086629143 -35.99193949303002
lfingers 7.125019999999983
lthumb -11.802574356683515 -6.299698629181798
rfemur -25.336044680634323 1.7792420330210994 20.000517499424728
rtibia 47.78258457622318
rfoot -7.304219495536772 -9.863830331747412
rtoes -1.437335687301767
lfemur -14.919273822076898 -0.2988258087552659 -17.155914415950196
ltibia 42.624873919427294
lfoot -6.003502853348144 -4.783205032338015
ltoes -6.247309944886639
181
root 0 0 0 0.4609531238688005 -3.1642655614806845 1.2592496091592127
lowerback 11.50492399507981 0.6317815175473145 -0.534193575141715
upperback -2.7790093062321573 0.7976627854803956 0.016758627771971346
thorax -9.450845981167866 0.3560714773172606 0.1995216680843549
lowerneck -9.799040707376946 0.2623923475338876 2.376024116451189
upperneck 18.55290663072111 1.132113849342689 -5.505336688281858
head 7.447221647587749 0.2732849962903159 -2.0903260768110226
rclavicle 2.1272445396705362E-16 -7.380683894397296E-16
rhumerus 2.582886198302404 3.439100538144917 -59.56472980447488
rradius 56.197256317328964
rwrist 17.54025724325136
rhand -28.40076768772181 -27.54654927559236
rfingers 7.125019999999986
rthumb -1.7682688924559482 -57.78546208709623
lclavicle -8.353178890253983E-16 -1.7479115548037506E-16
lhumerus 3.0762237747842462 -9.600471452966541 59.03465872781271
lradius 55.77586398236018
lwrist -11.273335284283034
lhand -38.8620901585984 -35.994823256198856
lfingers 7.125019999999983
lthumb -11.803135568118044 -6.302675941851376
rfemur -25.372977500781822 1.7702186642912459 19.98241310826618
rtibia 47.81642664719804
rfoot -7.293127886359147 -9.8704801814562
rtoes -1.4438243225968037
lfemur -14.916516932022283 -0.29734470228230114 -17.156549864753988
ltibia 42.634093868467524
lfoot -6.001554647707015 -4.787153293405232
ltoes -6.249399385546287
182
root 0 0 0 0.46110187559122195 -3.162401777460062 1.2622507856400238
lowerback 11.505009130544432 0.6306150118312879 -0.5372958310361952
upperback -2.779220543098243 0.7957097533904123 0.016599514063818654
thorax -9.45116952364484 0.35519427624806765 0.2014343398291648
lowerneck -9.798358899302324 0.2628650589652999 2.3761983063742993
upperneck 18.552766766214802 1.1328584030493758 -5.505871998429246
head 7.447082618494461 0.2736309325032522 -2.0904315566666
rclavicle 2.1278424245780452E-16 -7.380154307555582E-16
rhumerus 2.5830373545561436 3.439199360860071 -59.56463769759198
rradius 56.197391058170375
rwrist 17.540322862200117
rhand -28.400812032627428 -27.546771950495984
rfingers 7.125019999999986
rthumb -1.7683101872222133 -57.78570512654156
lclavicle -8.352994081272456E-16 -1.7464054294612386E-16
lhumerus 3.0779994895743066 -9.600990040899848 59.03343285332494
lradius 55.777265557846235
lwrist -11.274145596631644
lhand -38.862686418620655 -35.997712412255225
lfingers 7.125019999999983
lthumb -11.803701973902193 -6.305690140608078
rfemur -25.402003596677297 1.76336195620496 19.968249912235926
rtibia 47.8407713232428
rfoot -7.285668415542332 -9.876133354612307
rtoes -1.4499270790295293
lfemur -14.910407529199615 -0.29768868153177896 -17.15956509712929
ltibia 42.63030521610359
lfoot -6.004250118556749 -4.787094028300274
ltoes -6.2496518383504664
183
root 0 0 0 0.46092257116362045 -3.1657896663677825 1.2554065708103208
lowerback 11.504298254873499 0.6329001345212066 -0.5309730314556423
upperback -2.7784567691890705 0.7996373177985426 0.01720987814880659
thorax -9.449800168326725 0.35696171129940985 0.19760324210834512
lowerneck -9.800840156127657 0.26179160793491274 2.375318104274948
upperneck 18.551551955083074 1.1308626579967735 -5.50365723476988
head 7.44697984404406 0.27276488456938863 -2.089788130917525
rclavicle 2.128683535574678E-16 -7.366767934891844E-16
rhumerus 2.5819889982710045 3.438707641763484 -59.565476891078106
rradius 56.19623560347946
rwrist 17.539476573594506
rhand -28.400446167916265 -27.544774751381507
rfingers 7.125019999999986
rthumb -1.7678026245856442 -57.78323477351863
lclavicle -8.336409337694237E-16 -1.731914096967034E-16
lhumerus 3.078524775364457 -9.601269852621503 59.03332777094023
lradius 55.77740213784821
lwrist -11.274409646292227
lhand -38.8627970886494 -35.99799490173229
lfingers 7.125019999999983
lthumb -11.803709147853228 -6.306587480886314
rfemur -25.271626470284605 1.7988830371723186 20.033417898958902
rtibia 47.68519924045193
rfoot -7.34581236232469 -9.859999793061661
rtoes -1.4433905445565682
lfemur -14.864029932185755 -0.33915146317089406 -17.201653631151217
ltibia 42.33833465049645
lfoot -6.105842499391752 -4.689008724501769
ltoes -6.202730443789829
